<svg xmlns="http://www.w3.org/2000/svg" width="20px" height="20px" viewBox="0 0 800 800"><path d="M388.72 0h22.47c47.9 1.53 95.7 11.3 140.1 29.58 62.9 25.66 118.9 67.75 161.3 120.84 40.7 50.8 68.7 111.67 80.5 175.68 3.9 20.37 5.84 41.05 6.77 61.75v23.3c-1.26 36.76-7.1 73.4-18.17 108.5-18.63 59.8-51.72 114.95-95.5 159.72-42.1 43.2-94.1 76.77-150.9 97.15-39.8 14.43-81.93 22.03-124.23 23.48h-20.6c-38.7-1.1-77.28-7.4-114.1-19.44-63.88-20.64-122.25-57.86-168.13-106.84-45.35-48.2-78.5-107.82-95.22-171.86C5.2 472.26 1.15 441.76 0 411.2V389c1.72-55.15 14.47-110 38.2-159.87 26.44-56.02 66.16-105.66 114.88-143.9 38.07-29.92 81.6-52.88 127.86-67.26C315.82 7.03 352.2 1.27 388.72 0M376.5 69.83c-56.4 3.88-111.64 22.72-158.72 54-54.3 35.85-97.72 88-122.92 148C66.3 339.16 61.3 416.07 80.53 486.6c9.56 35.3 25.1 68.94 45.67 99.15 34.63 51 83.7 92.07 140.08 117 69.67 31.1 150.24 36.67 223.6 15.82 34.82-9.83 68-25.48 97.75-46.06 50.55-34.8 91.17-83.9 115.73-140.1 30.7-69.5 35.98-149.8 15.03-222.9-9.8-34.1-25.1-66.53-45.1-95.8-34.6-50.7-83.5-91.5-139.7-116.32-49-21.95-103.5-31.35-157.1-27.5z"/><path d="M325.7 160.66c23.4-8.5 48.52-11.47 73.33-11.1 30.7.37 61.67 5.3 90.05 17.36 14.42 6.1 28.1 14.05 40.4 23.75 12.86 10.22 23.65 23.06 31.2 37.65 8.97 17.2 13.43 36.47 14.7 55.75 1.4 21.52-.54 43.6-8.5 63.8-5.64 14.48-14.5 27.58-25.36 38.65-19.55 20.05-42.43 36.36-64.3 53.7-12.13 9.73-21.92 22.93-25.63 38.2-2.9 12.17-3.3 24.75-3.6 37.2-31.2 0-62.3.04-93.4-.02 1.1-24.05 2.1-48.38 8.1-71.8 3.13-13.02 11.03-24.2 20.02-33.86 13.82-15.06 30.42-27.1 46.4-39.7 6.65-5.3 13.7-10.23 19.5-16.5 10.1-10.8 18.02-24.14 20.52-38.88 3.17-18.67-.7-38.4-10.58-54.56-4.3-7.45-10.24-14.04-17.84-18.17-14.8-8.16-32.33-9.4-48.9-8.6-17.2.9-35.14 7.42-45.8 21.56-12.6 17.2-20.04 38.3-20.06 59.7h-99.5c1.4-34.8 8.86-70.5 28.33-99.9 16.6-25.45 42.32-44.1 70.72-54.37zm26.54 402.06c34.33-.08 68.67-.02 103-.02v99.6c-34.33.02-68.67.02-103 0 .02-33.2 0-66.38 0-99.58z"/></svg>