<svg xmlns="http://www.w3.org/2000/svg" width="27px" height="26px" viewBox="0 0 801 800"><path fill="#fff" d="M307.4 0h18.28c40.03 1.16 79.88 9.63 116.68 25.46 63.76 27.13 117.98 75.87 151.88 136.28 18.22 32.3 30.67 67.82 36.58 104.42 7.1 44.06 4.94 89.64-6.56 132.78-7.18 27.07-18.1 53.12-32.1 77.37 65.74 65.8 131.57 131.6 197.34 197.3 6.74 6.5 10.82 15.4 11.5 24.7v6c-.88 5.1-2.15 10.3-4.82 14.8-3.12 5.7-8.14 10-12.6 14.6-17.24 17.1-34.37 34.3-51.55 51.47-3.82 3.9-7.7 7.9-12.6 10.46-4.3 2.43-9.14 3.6-13.97 4.48h-7.8c-8.2-1.15-16.2-4.56-22.13-10.45-66.12-65.95-132.1-132.04-198.2-198.04-36.85 21.5-78.05 35.5-120.4 40.75-45.73 5.67-92.7 1.43-136.58-12.7-57.7-18.4-109.74-53.9-148.15-100.7-34.88-42.24-58.54-93.7-67.7-147.7C1.9 356.2.57 341 0 325.8v-16.5c1.4-52.7 15.94-105.05 42.48-150.65C74.45 103.2 123.58 57.9 181.4 30.55c39.3-18.8 82.56-28.9 126-30.5M296.6 81.9c-47.2 4.04-92.93 23-129.38 53.25-38.2 31.46-66.27 75.06-78.63 122.98-11.5 43.84-9.9 91 4.5 133.95 10.83 32.5 28.92 62.56 52.5 87.45 25.7 27.26 58 48.34 93.33 60.78 40.23 14.3 84.37 17.2 126.2 8.6 34.97-7.1 68.26-22.3 96.5-44.2C491 482 515.03 452.5 531 419c17.93-37.4 25.47-79.58 22.13-120.88-2.98-38.26-15.53-75.74-36.3-108.02-24.56-38.34-60.3-69.5-101.83-88.26-36.87-16.76-78.12-23.57-118.45-20z"/></svg>