<svg xmlns="http://www.w3.org/2000/svg" width="1092" height="800pt" viewBox="0 0 819 800"><path d="M147.5 0h8.7c22.4 1.2 43.3 12.15 59.3 27.48 22.63 21.52 38.05 49.36 50.24 77.8 14.22 33.85 23.96 69.5 30.05 105.7-30.5 30.7-61.3 61.2-91.8 91.86.9 12.22 5.3 23.85 10.1 35 10.65 23.7 25.15 45.43 40.72 66.15 25.16 33.1 53.67 63.5 83.4 92.6 24.82 24 50.74 47 78.7 67.3 16.9 12.2 34.5 23.53 53.4 32.52 12.5 5.77 25.6 11.12 39.43 12.2L616.5 502.1c18.04 3.93 35.3 10.78 52.2 18.06 34.95 15.36 68.52 33.64 101.6 52.65 16.4 9.5 32.64 19.3 48.7 29.4v.8c-4.1 29.17-11.8 57.9-24.7 84.4-13.73 28.4-33.56 54.1-58.75 73.3-22.13 16.95-48.18 28.57-75.4 34.4-13.4 2.96-27.07 4.35-40.75 5h-14.86c-17-.64-34-2.4-50.6-6.26-39.55-8.77-77.87-22.5-114.87-38.84-72.3-32.2-139.37-75.9-198.35-128.64-48.56-43.4-91.54-93-128-146.94-40.13-59.27-72.4-123.7-97.25-190.8-3.07-8.36-6.28-16.7-8.52-25.35-4.3-15.95-6.23-32.4-6.95-48.8V198c1.18-25 5.34-49.9 13.24-73.7C25 88.7 44.77 54.86 74 30.84c20.8-16.98 46.47-29 73.5-30.84z"/></svg>