<svg xmlns="http://www.w3.org/2000/svg" width="40px" height="32px" viewBox="0 0 927 800"><path fill="#ee3234" d="M463.42 0h.1C618.07 266.57 772.4 533.27 927 799.84v.16H0v-.1C154.5 533.26 308.98 266.64 463.42 0m-53.4 221.3c-.02 40.92-.1 81.84.05 122.76 8.93 74.96 18.1 149.9 27.1 224.86 16.27.03 32.54.02 48.8 0 8.82-74.97 17.7-149.95 26.4-224.94.16-40.87 0-81.74.1-122.6-34.15-.15-68.3 0-102.44-.08m2.28 386.72c.05 31.53 0 63.07.04 94.6 32.64-.1 65.3.25 97.94-.18-.18-31.48-.02-62.96-.08-94.43-32.64 0-65.26 0-97.88.04z"/></svg>