<svg xmlns="http://www.w3.org/2000/svg" width="796pt" height="800pt" viewBox="0 0 796 800"><path d="M397.2 0h.06c45.23 54.6 90.33 109.33 135.5 164-29.46.03-58.93-.04-88.4.03.02 212 0 423.98.02 635.97h-94.2V164c-29.47-.02-58.95.02-88.42 0 45.12-54.7 90.3-109.34 135.43-164zm234.75 253.7c54.72 45.08 109.4 90.2 164.05 135.34v.03c-54.62 45.18-109.34 90.25-164.05 135.34-.04-29.4 0-58.82-.02-88.25h-45.3c-.02 121.3 0 242.58 0 363.87h-94.2V342c46.5-.1 93 0 139.5-.05.03-29.4-.02-58.82.02-88.22zM0 561.37c54.65-45.15 109.35-90.24 164.04-135.33.05 29.42 0 58.84.03 88.27 47.56.04 95.12 0 142.67.04.02 95.22 0 190.45 0 285.68H212.5V608.48c-16.12-.07-32.26 0-48.4-.03-.07 29.43 0 58.87-.05 88.3C109.35 651.7 54.7 606.55 0 561.5v-.13z"/></svg>