<svg xmlns="http://www.w3.org/2000/svg" width="476pt" height="800pt" viewBox="0 0 476 800"><path d="M229.47 0h16.14c40.3 1.36 80.2 12.9 114.7 33.74 51.8 30.82 91 81.94 107 140 5.2 18.44 7.9 37.5 8.8 56.63v13.9c-1.9 25.03-8.1 49.48-15.24 73.45-11.17 36.82-25 72.76-39.65 108.32-32.6 78.34-69.4 154.86-107.6 230.58-23 45.3-46.55 90.34-70.84 134.97-1.46 2.7-3.23 5.3-4.14 8.4h-1c-.9-3-2.66-5.7-4.1-8.4-36.63-67.5-71.84-135.7-105.4-204.7-18.64-38.4-36.7-77-53.88-116.08-20.4-46.7-39.9-93.86-55.46-142.4-8.64-27.4-16.4-55.36-18.67-84.1v-14.8c1.13-25.3 5.8-50.45 14.67-74.18 18.46-50.25 54.5-93.7 100.37-121.3 34.37-20.9 74.2-32.5 114.4-34.1m.6 166.16c-24.64 2.5-47.2 18.77-57.55 41.25-6.9 14.7-8.6 31.78-4.8 47.5 4.1 17.1 14.6 32.48 29 42.4 11.5 8.1 25.3 12.6 39.3 13 15.1.48 30.3-4 42.7-12.52 13.2-8.98 23.3-22.43 28.2-37.65 5.13-15.9 4.5-33.55-1.76-49-6.3-15.7-18.3-29.03-33.28-36.93-12.7-6.8-27.46-9.56-41.76-7.98z"/></svg>