<svg xmlns="http://www.w3.org/2000/svg" width="936" height="1001pt" viewBox="0 0 702 1001"><path fill="#fff" d="M38.35 44.36c29.1-31.17 73.5-47 115.73-41.96 7.04.35 13.77 2.98 20.8 3.28l-1.76.5c5.5.74 10.53 3.26 15.68 5.2 14.2 5.53 27.07 14.24 38.1 24.7C385.27 194.48 543.66 352.82 702 511.2v.97c-35.18 34.76-69.97 69.9-105 104.83-116.5 116.5-232.98 233-349.5 349.48-22.37 20.96-52.8 32.8-83.38 33.2-31.52 1-63.24-9.35-88.23-28.57-28.06-21.3-46.6-54.2-51.5-89-5.9-38.1 5.35-79.3 32.42-107.2 87.22-87.54 174.77-174.76 262.06-262.23 1.55-1.1-.5-2.5-1.2-3.37-89.2-89.1-178.3-178.34-267.5-267.48-9.63-9.77-19.94-19.07-27.5-30.6-17.06-25-24.05-56.2-20.9-86.15 3.04-29.9 15.82-58.85 36.55-80.7z"/></svg>