<svg xmlns="http://www.w3.org/2000/svg" width="691pt" height="800pt" viewBox="0 0 691 800"><path fill="#2b7aed" d="M340.3 0h11.96c34.37 1.46 68.26 13.25 95.78 33.97 26.16 19.48 46.6 46.57 58.03 77.13 10.64 28.23 13.5 59.3 8.46 89.03-5.17 30.86-19.14 60.16-39.73 83.7-20.5 23.58-47.57 41.4-77.38 50.82-34.03 10.83-71.45 10.66-105.38-.5-28.53-9.3-54.48-26.34-74.45-48.74-21.6-24-36.2-54.3-41.3-86.2-5.4-32.5-1.2-66.6 12.1-96.7C201.9 71.7 224.7 45.1 253 27 278.92 10.3 309.46.98 340.3 0zM145.5 427.72c33.22-15.48 69.9-23.4 106.53-23.27 63.33 0 126.65-.06 189.98.02 25.8.22 51.5 4.38 76 12.38 58.5 18.9 109.2 60.23 139.7 113.5 20.8 35.77 32.2 76.78 33.4 118.1v48.2c-61.3 40.4-129.8 70-201.3 86.75-43.27 10.24-87.64 15.54-132.1 16.6h-24.1c-48.4-1.13-96.7-7.4-143.6-19.43-67.4-17.13-131.8-45.7-189.87-83.9v-48.2c1.3-43.96 14.2-87.54 37.46-124.88 25.6-41.6 63.7-75.4 108-95.9z"/></svg>