<svg xmlns="http://www.w3.org/2000/svg" width="14px" height="15px" viewBox="0 0 841 800"><path d="M420.46 0h.12L841 420.7v.13c-26.35 26.38-52.7 52.74-79.1 79.1C648.13 386.1 534.37 272.26 420.65 158.38 306.77 272.2 192.97 386.1 79.1 499.9 52.7 473.56 26.4 447.1 0 420.75v-.12C140.17 280.45 280.28 140.2 420.46 0z"/><path d="M120.62 523.1c100.05-99.9 199.88-200.05 299.94-299.96 99.9 100.05 199.94 199.96 299.85 300 .1 92.28.05 184.57.07 276.86H506V548.5c-57.02 0-114.03 0-171.04.02-.04 83.83 0 167.65-.02 251.48H120.56c.04-92.3-.08-184.6.06-276.9z"/></svg>