<svg xmlns="http://www.w3.org/2000/svg" width="120px" height="45px" viewBox="0 0 120 45"><g fill="#fff"><path d="M0 0h5.92C3.48 1.03 1.62 2.93 0 4.96V0zm114.66 0H120v7.78c-.12-3.5-2.24-6.35-5.34-7.78zM1.34 7.92c-.3-3.44 2.74-5.54 5.2-7.3 12.34.06 24.66 0 37 .03-.03 14.5-.06 28.98 0 43.47-11.54 0-23.08.05-34.6 0-3.92.25-7.8-3.1-7.6-7.1-.06-9.7-.05-19.4 0-29.1m18.08 3.93c1.6 4.06 8.62 4.57 7.35 10 1.55-2.6 3.97-4.84 4.62-7.87-.1-5.46-7.7-5.8-8.6-10.83-1.6 2.68-4.5 5.27-3.5 8.7m-2.2 9.18c2.1 1.66 4.2 3.42 6.2 5.38.8-1.7 2.5-3.3 2.1-5.4-1.6-2.4-4.1-4-6.1-6-1.2 1.9-2.3 3.8-2.3 6.1m-1.4 6.4l-1.2 1.7 4.4.2.5 2.1h6.1c.9-2.4 3.4-2.2 5.5-2.6l-1-1.4c-4.7-.2-9.5-.2-14.2 0m-1.4 6.7l1.9 2.1c-1.8.1-3.5.3-5.3.3v5.3c2.2-.6 6.5 1.1 6.9-2.3l1.7 2.4c2.2-.4 5.3.6 6.8-1.6-.2-1.2-.5-2.4-1-3.5.3-.5.8-1.4 1-1.9-2-1.9-4.7-2-7.38-2 0 1.8.02 3.6.06 5.4h-1.9c.1-1.4.16-2.8.1-4.2-2.04-1.4-4.66-.8-7-1 .2 2.4 2.37 2.2 3.8 1.4M27.3 33c-.04 3.08-.05 6.1-.04 9.2 3.4.08 6.74-.73 10-1.62l-2.4-.4c-.3-.86-.54-1.74-.8-2.62 0-1.02.08-2.1-.07-3.12-1.9-1.64-4.5-1.1-6.7-1.3zm22.8-17c.9-.97 1.85-1.93 2.86-2.78 1.12 2.8 2.33 5.57 3.48 8.37-1.43-.7-2.68-1.9-4.3-2.2-1.27.6-2.53 1.4-3.77 2.1.54-1.7 1.05-3.3 1.52-5 1.2 1 2.7 2 4.3.3-1.4-.4-2.7-.8-4.1-1.1zm13.94-.8c1.78-2.23 4.68-2 6.56-.04-2.03.4-6.28-.67-5.5 2.8 0 2.9 3.8 1.18 5.46 1.8-1.87 2.03-4.7 2.3-6.52.08-1.74 1.03-4 2.5-5.95 1.12-2.7-1.26-2.7-5.6-.1-6.87 1.9-1.5 4.2 0 5.9 1.1M57.7 18c.65 2.9 3.65 1 5.66 1l.04-3.23c-2.26-.3-6.3-1.5-5.7 2.2zm34.96-1.5l-.1-3.48 1.8 1.42c2.3-1 4.77-.86 7.2-.8-.9.7-1.8 1.4-2.65 2.12-.1 2.25-.1 4.55-1 6.7-1.1-2.85.6-7.53-3.6-7.93v6.67l-1.3.1-1.7-3.02c-.6 3.26-4 3-6.6 3.16v-8c2.5.1 4.9.63 7.1 1.66l-1.6.67 2.7.73m-6.5-1.37l.2 5.02c2.6-.3 3.7-2.07 3.3-4.5-1.2-.17-2.3-.35-3.4-.56zM71 14.47c.9-1.45 2.96-.6 4.3-1l2.6 2.5L76 18.5l.9 3.54c-1.34-1.27-2.66-2.54-3.97-3.82l-.4 3.17-1.7-.2c0-2.3 0-4.5.17-6.8m1.84.9c-1.3 1.4 1.25 3 2.33 1.7 1.35-1.4-1.3-3-2.34-1.7zm5.6 5.8c-.07-2.6-.06-5.1-.04-7.7h5.36V15c-1.1.1-3.4.4-4.6.5 1.3.7 2.6 1.14 4 1.5v1.1H80l.2 1.54h3.5l.1 1.6h-5.4zm23.24-7.4c1.97-.2 3.97-.3 5.96-.4v1.4c-1.6.3-3.3.6-4.9 1 1.4.4 2.83.7 4.3 1v.9c-1.5.3-2.9.6-4.3 1 1.6.4 3.24.7 4.9 1l.1 1.2c-1.8 0-3.57 0-5.34.1-.3-2.5-.5-5-.7-7.5zm6.95-.4c2.96-.3 7.36.6 7 4.5-.8 3.2-4.3 3.4-7 3.4-.06-2.7-.06-5.4 0-8m1.85 1.2c-.05 1.8-.05 3.7 0 5.5 1.3-.7 3.7-1.1 3.25-3.1-.06-1.8-2.1-1.8-3.26-2.5zm-47 14.5c-.16-1.7 1.3-2.6 2.33-3.6 1.2.6 2.4 1.2 3.6 1.9-1.6 0-3.2.4-4.9.5 1.5.8 3 1.5 4.3 2.5 0 1 0 2.1-.2 3.2-2.1 0-4.4.2-5.8-1.7H68c-1.5-1-3.02-1.9-4.45-2.9zm31.83-3.4l2.9.5.6 1.8c-.8-.2-2.5-.5-3.3-.6l-.2 1c1.5.8 2.9 1.6 4.3 2.5L98 33.6c-1.98 0-4.1-.06-5.44-1.8 1.3 0 3.94.06 5.25.07-1.5-.98-3-1.9-4.5-2.96.2-1.3 1.2-2.3 2-3.3zm-46.6.8c2.2-.6 4.3-.6 6.3.3l-.6 3.1c.4.5 1.1 1.7 1.5 2.3-2 1.2-4.3 1.4-6.6 1.5-.2-2.5-.5-4.9-.6-7.3m2.5 1c-.7 1.5-.2 2.1 1.5 1.7.8-1.6.3-2.1-1.5-1.8m-.1 3.2c-1.1 1.4 1.6 2.5 2.4 1.3 1.2-1.5-1.5-2.4-2.3-1.3zm9.6 2.9c-4.6 1.6-6.6-5.9-3-8.1.1 2 .2 4 .2 6.1 1 .1 2 .3 2.9.5.3-2.5.3-5 1.5-7.2.5 2.7 1.8 7.2-1.5 8.6zm10.1.4c-1-2.7-1.6-6.6.9-8.5.2 2.6.4 5.3 0 8l-.8.4zm2.9-8.5c1.5 1.4 2.9 3 4.1 4.6.4-1.8.8-3.6 1.6-5.2.5 3 .4 6.2.2 9.2-1.6-1.6-3.1-3.4-4.5-5.3-.5 1.5.6 4.1-1.2 5-1-2.8-.5-5.7-.1-8.6z"/><path d="M80.6 26.36c1.95-.28 3.9-.54 5.84-.77l.04 1.6c-1.66.2-3.32.4-4.97.7 1.6.5 3.1 1 4.7 1.5v.7c-1.5.2-3 .5-4.6.7 2 .7 4.1 1.2 6.1 1.9 0-.5-.1-1.4-.1-1.9.9.4 2.6 1.3 3.4 1.7 0-2.3-2.5-2.8-3.7-4.1 0-1.7 1.7-2.3 2.6-3.3l3.5 2-4.6.3c2.2 1.3 5.1 2.6 3.9 5.7-3.8-.1-7.6 0-11.4.1-.2-2.4-.3-4.8-.4-7.2zm-59.26 8.08c1.24.2 2.48.43 3.72.66-1.2.57-2.43 1.13-3.66 1.66l-.06-2.32zm7.7.1c1.4.1 2.8.25 4.2.46-1.23 1.34-4 2.3-4.2-.47zm-15.8 3.22c1.43.38 2.86.78 4.28 1.22-1.42.4-2.85.74-4.3 1.07l.02-2.3zm7.18.64c1.67-.1 3.34-.12 5-.05-1.2 1.86-3.75 1.88-5 .05zm8.18.15c1.4-.2 2.8-.38 4.2-.54l-.17 2.1c-1.4-.3-2.85-.6-4.03-1.5zM114.4 45c2.7-1.17 4.7-3.45 5.6-6.25V45h-5.6zM0 40.33c1.8 1.7 3.63 3.4 5.78 4.67H0v-4.67z"/></g><g fill="#016696"><path d="M5.92 0h108.74c3.1 1.43 5.22 4.3 5.34 7.78v30.97c-.9 2.8-2.9 5.08-5.6 6.25H5.78C3.63 43.74 1.8 42.03 0 40.33V4.96C1.62 2.93 3.48 1.03 5.92 0M1.34 7.92c-.05 9.7-.06 19.4 0 29.1-.2 4 3.68 7.35 7.6 7.1 11.52.05 23.06 0 34.6 0-.06-14.5-.03-28.98 0-43.47C31.2.63 18.87.68 6.54.63c-2.47 1.75-5.5 3.85-5.2 7.3m48.76 8.05c1.4.3 2.75.64 4.1 1.05-1.57 1.6-3.04.64-4.32-.37-.47 1.65-.98 3.3-1.52 4.93 1.24-.8 2.5-1.5 3.78-2.2 1.6.2 2.86 1.4 4.3 2.1-1.16-2.8-2.37-5.6-3.5-8.4-1 .8-1.93 1.8-2.83 2.7m14-.8c-1.7-1.1-4-2.6-5.9-1.1-2.6 1.2-2.6 5.6 0 6.8 2 1.4 4.2-.1 6-1.1 1.9 2.2 4.7 1.9 6.5-.1-1.7-.6-5.4 1.1-5.4-1.8-.7-3.5 3.5-2.4 5.5-2.8-1.9-2-4.8-2.2-6.5 0M93 16.3l-2.66-.7 1.58-.7c-2.26-1.02-4.6-1.55-7.1-1.64v8c2.54-.15 5.98.1 6.6-3.14.6 1 1.2 2 1.78 3.1l1.3-.1c0-2.23.04-4.44.1-6.66 4.2.4 2.46 5.1 3.62 7.95.8-2.1.9-4.4 1-6.7l2.66-2.1c-2.44 0-4.9-.2-7.2.8l-1.8-1.4.1 3.5m-22-2c-.2 2.2-.15 4.5-.17 6.7l1.7.2.4-3.1c1.3 1.3 2.7 2.6 4 3.8l-.9-3.6 1.9-2.5-2.5-2.5c-1.4.4-3.4-.5-4.3 1m7.4 6.8h5.4l-.1-1.6h-3.5l-.1-1.5h3v-1.1c-1.3-.4-2.7-.8-3.9-1.6 1.2-.1 3.5-.4 4.6-.5l.1-1.5h-5.4v7.7m23.3-7.4c.1 2.5.3 5 .6 7.5 1.8 0 3.6-.1 5.3-.1V20c-1.6-.3-3.3-.6-4.9-1 1.4-.4 2.8-.76 4.3-1.1V17c-1.4-.3-2.9-.65-4.3-1.04 1.6-.4 3.3-.75 4.9-1.05v-1.3c-2 .1-4 .2-6 .4m7-.4v8c2.7 0 6.2-.2 7-3.4.4-3.9-4-4.8-7-4.5M63.6 29c1.4 1 2.94 1.9 4.44 2.9h-5.2c1.45 1.94 3.8 1.7 5.9 1.7.1-1.05.15-2.1.16-3.18-1.35-1-2.87-1.7-4.3-2.53 1.66-.1 3.27-.5 4.9-.5-1.2-.7-2.4-1.3-3.6-2-1.04 1-2.5 1.8-2.35 3.5m31.9-3.4c-.8 1-1.8 2-2 3.3 1.48 1.1 3 2 4.55 3-1.36 0-4-.1-5.3-.1 1.35 1.7 3.46 1.8 5.44 1.8l1.5-2.8c-1.4-.9-2.87-1.7-4.3-2.4l.2-1.1c.82.1 2.5.4 3.3.6l-.66-2-2.9-.5m-46.68.8c.12 2.4.36 4.9.6 7.3 2.3-.1 4.63-.3 6.62-1.5l-1.5-2.4.6-3.1c-2.05-.9-4.2-.9-6.34-.4m11.9 7.1c3.24-1.5 1.93-6 1.5-8.7-1.15 2.2-1.2 4.7-1.5 7.2-.94-.2-1.9-.4-2.9-.5 0-2.1-.05-4.1-.17-6.1-3.6 2.2-1.6 9.7 3.1 8.1m10 .4l.9-.5c.5-2.6.2-5.3.1-8-2.5 2-1.9 5.9-.9 8.5m2.9-8.5c-.3 2.8-.9 5.8.1 8.6 1.9-.9.7-3.4 1.2-5 1.4 1.9 2.9 3.6 4.6 5.3.3-3.1.4-6.3-.1-9.3-.8 1.6-1.2 3.4-1.6 5.1-1.2-1.7-2.5-3.3-4.1-4.7m7.2 1c.1 2.4.3 4.8.5 7.2 3.8-.2 7.7-.3 11.5-.2 1.3-3.1-1.6-4.5-3.8-5.8l4.6-.3-3.4-2c-.9 1-2.7 1.6-2.6 3.3 1.3 1.3 3.8 1.82 3.7 4.1-.8-.4-2.5-1.3-3.4-1.7l.1 1.82c-2-.6-4.1-1.1-6.1-1.9l4.6-.7.1-.7c-1.6-.5-3.1-1-4.7-1.5 1.7-.26 3.3-.5 5-.7v-1.7c-1.9.25-3.9.5-5.8.8z"/><path d="M19.42 11.85c-1.06-3.43 1.88-6.02 3.44-8.7.92 5.03 8.52 5.37 8.53 10.83-.7 3.03-3.1 5.28-4.7 7.86 1.2-5.42-5.8-5.93-7.4-10zm53.26 3.63c1.04-1.3 3.7.3 2.35 1.7-1.08 1.34-3.64-.25-2.35-1.7zm13.64-.33c1.14.2 2.3.4 3.45.54.3 2.4-.8 4.2-3.32 4.4-.07-1.7-.1-3.4-.13-5zm24.04-.42c1.16.7 3.2.75 3.24 2.5.47 1.97-1.96 2.4-3.24 3.06-.06-1.9-.06-3.8 0-5.6zm-93.06 6.3c0-2.25 1.02-4.24 2.25-6.07 2.02 2 4.53 3.6 6.1 6.02.34 2.08-1.35 3.7-2.17 5.43-1.9-1.9-4-3.7-6.2-5.3zm40.5-2.98c-.6-3.7 3.45-2.48 5.7-2.2l-.04 3.25c-2-.02-5 1.84-5.65-1.05zm-6.7 9.35c1.72-.36 2.22.22 1.5 1.75-1.7.35-2.2-.24-1.5-1.76zm-35.16.03c4.7-.22 9.46-.25 14.16.03l1.27 1.4c-2.08.36-4.67.16-5.54 2.6h-6.1l-.57-2.13-4.44-.2 1.22-1.7zm35 3.12c.86-1.1 3.5-.13 2.35 1.32-.9 1.22-3.6.1-2.4-1.32zM14.5 34.1c-1.47.76-3.6.94-3.82-1.42 2.3.17 4.93-.43 6.97 1 .06 1.43.03 2.85-.1 4.28l1.9.02-.06-5.4c2.6 0 5.3.14 7.3 2.05l-1 1.97c.5 1.16.8 2.35.9 3.58-1.6 2.16-4.6 1.18-6.8 1.6L18 39.44c-.38 3.4-4.68 1.68-6.9 2.3l-.04-5.26c1.75-.08 3.5-.2 5.26-.3l-1.9-2.08m6.8.34l.05 2.32c1.22-.53 2.44-1.1 3.65-1.66l-3.7-.66m-8.1 3.32v2.3c1.42-.34 2.85-.7 4.27-1.08-1.4-.44-2.9-.84-4.3-1.22m7.2.64c1.2 1.83 3.8 1.8 5-.05-1.7-.07-3.4-.06-5 .05zm7.1-5.82c2.2.23 4.9-.33 6.7 1.32.1 1.04.1 2.1.1 3.14l.8 2.64 2.4.42c-3.3.9-6.6 1.7-10.1 1.65v-9.17m1.5 1.95c.2 2.76 3 1.8 4.2.47-1.4-.2-2.8-.36-4.2-.47m-.4 4.02c1.1.9 2.6 1.2 4 1.55l.1-2.1c-1.4.17-2.8.35-4.2.55z"/></g></svg>