<svg xmlns="http://www.w3.org/2000/svg" width="214px" height="37px" viewBox="0 0 2881 500"><path fill="#2b7aed" d="M59.5 0h5.85c13.5.7 26.76 5.76 37.12 14.48 12.62 10.45 20.83 26.05 22.2 42.4 1.34 14.6-2.67 29.64-11.2 41.6-9.2 13.12-23.64 22.44-39.4 25.34-16.64 3.2-34.5-.73-48.18-10.73C10.6 102.2.8 84.1 0 65.4V59c.85-13.06 5.67-25.87 14-36C25 9.33 42 .84 59.5 0zm1542.75 104.07c10.63-3.55 22.4 6.02 22 17V324c.2 4.94-.57 10 .68 14.85.9 3.7 4.17 6.8 8.05 7.08 3.6.27 7.44.48 10.5 2.67 7.4 4.5 9.48 15.9 3.54 22.4-4.77 5.23-12.43 6.15-19.1 5.62-9.94-.6-19.78-4.7-26.66-11.98-7.8-8.1-11.56-19.5-11.57-30.63-.1-71 0-141.9 0-212.9-.2-7.6 5.3-14.8 12.5-16.9zm-835.1 18.78c3.68-1.8 7.86-1.52 11.85-1.5 25.66 0 51.32-.02 77 0 22.58 0 44.84 9.96 60.17 26.5 12.77 13.6 20.78 31.58 22.14 50.2 1.4 16.9-2.7 34.15-11.6 48.62-14.4 24.14-41.5 40.23-69.8 40.5-21.9.05-43.8 0-65.8.02V359c.1 5.97-3 11.95-8.1 15.16-5.1 3.35-12.1 3.42-17.4.2-5.2-3.17-8.4-9.27-8.3-15.35V139c-.2-6.7 3.7-13.4 9.9-16.1m24 29.1v105H852c26.5 1.56 50.14-21.35 53.1-47 3.4-27.96-19.72-56.6-48.08-57.94-21.98-.12-43.95-.03-65.92-.06zm-768 49.27c12-9.75 27.6-14.8 43-13.8 13.5.7 26.6 6 36.9 14.74 13.7 11.5 22 29.1 22.1 46.9 0 6 .4 11.9 1 17.8 1.3 21.7 7.6 43 16.7 62.6 15.1 32.3 39.7 60.2 69.8 79.2 29 18.5 63.2 28.6 97.6 28.9 38.5.6 77-11 108.6-32.9 38.9-26.6 67.2-68.3 76.9-114.4.6-2.9 1.4-5.8 2.4-8.7-1.9 15.7-5.4 31.1-10.3 46.1-18.9 58.4-60.2 108.9-113.5 139.4-35.6 20.6-76.3 32-117.4 33.1h-14c-44.7-1.3-89.1-14.7-126.8-38.9-29.1-18.4-54.2-43-73.5-71.5-26.2-38.5-41-84.5-42.6-131v-13.1c1.2-17.1 9.7-33.5 23.1-44.3zm990.7-6.5c21.6-7.44 45.9-6.67 66.7 2.8 30 13.3 51.8 44.42 51.9 77.5.3 11.04-8.8 22.33-20.3 22.25-42.6.03-85.3 0-127.9.03 3.6 14.7 11.9 28.44 24.1 37.57 11.3 8.62 25.7 12.9 39.9 12.3 14.7-.4 28.8-5.5 41.5-12.66 5.3-3.1 12.2-3.9 17.6-.66 4.9 2.82 7.5 8.74 6.9 14.27-.5 5.45-3.9 10.46-8.8 12.9-24.6 13.96-54.5 19.45-82.3 13.15-26.8-6.1-50.4-24.65-62.5-49.4-10.8-21.9-12.7-48.07-4.9-71.24 8.9-27.26 31.2-49.6 58.4-58.8m-.3 32.63c-15 9.3-25.8 25-29.3 42.2h117.3c-3.4-26.7-27.5-49.4-54.4-50.9-11.8-.7-23.6 2.5-33.6 8.8zm223.7-37.2c18.8-1.8 38.2 1.8 54.8 10.8 17 9.1 31.1 23.6 39.6 40.9 9.1 18.2 11.7 39.4 7.8 59.4-6 31.4-29.3 58.7-59.2 69.7-21.23 8-45.4 7.9-66.62.1-16.1-5.9-30.5-16.5-41-30.1-11.7-15.1-18.4-33.8-19.3-52.8-1.35-23.2 6.2-46.9 21.2-64.8 15.5-18.7 38.7-30.7 62.9-32.9m1.06 30.1c-21.8 3-41 18.6-49 39-8.4 20.2-5.1 44.4 7.6 62 9.9 14.1 25.93 23.9 43.15 25.6 16.34 2 33.3-3.3 45.75-14.1 15.1-12.8 23.7-32.9 22.8-52.7-.7-18-9.5-35.5-23.53-46.9-12.9-10.5-30.3-15.4-46.8-12.9zm135-13.3c-.1-8.6 7.2-16.5 15.8-17.2 8.6-.9 17.1 5.8 18.5 14.4.5 4 .1 8.1.2 12.1 9.7-10.8 22.2-19.1 36.25-23.1 19.1-5.4 40-4.3 58.2 3.6 18.7 8 34.1 22.7 43.7 40.6 16.3 30 15.4 68.8-3.1 97.7-10 15.9-24.9 28.7-42.3 35.7-18.3 7.5-39.3 8.2-58.2 2.4-13.3-4.13-25.1-12.3-34.4-22.6 0 29.6 0 59.2-.07 88.7-.06 10.3-10.65 18.8-20.66 16.6-8.1-1.4-14.3-9.2-13.9-17.5 0-77-.1-154 0-231m82.3 12.8c-10.4 1.4-20.4 5.6-28.46 12.3-11.92 9.9-19.2 24.6-21.2 39.9-1.9 16.2-.42 33.6 8.4 47.77 8.66 14.68 24.37 24.67 41.2 26.7 16.7 2.3 34.3-2.5 47.2-13.5 14.2-11.9 22.2-30.36 22.2-48.8.3-19.94-8.6-40.14-24.5-52.43-12.5-9.8-29.2-13.9-44.9-11.8zm278.3-28.4c19.7-3.9 40.8-1.22 58.7 8.1 25.1 12.86 43.6 38.26 47.06 66.36.6 6.07 1.3 12.5-1.3 18.25-3.1 7.4-10.3 13.3-18.5 13.2-42.6 0-85.3-.02-127.9 0 4.02 17.1 14.73 32.8 30.1 41.6 13.1 7.8 29.1 9.9 44 7.28 11.3-1.9 21.9-6.4 31.9-12 5.7-3.24 13.6-3.44 18.8.98 5.9 4.8 6.6 14.07 2.5 20.2-2 3.4-5.5 5.38-8.9 7.16-19.08 10.2-40.9 15.2-62.5 14.1-18.6-1-37-7.4-51.9-18.6-15.2-11.2-26.7-27.2-32.6-45.1-7.1-21.3-6.4-45.3 2.5-66.1 11.7-28.2 38.04-49.6 68-55.4M1723 227c-15.6 9.2-26.9 25.23-30.54 42.95 39.1 0 78.2.02 117.3 0-2.9-22.05-19.7-41.2-40.6-48.25-15.2-5.2-32.5-2.9-46.2 5.3z"/><g fill="#1650a5"><path d="M433.67 0h6.7c21.9 1.04 42.66 14.43 52.45 34.06 6.9 13.42 8.6 29.38 4.84 43.98-3.83 15.1-13.58 28.57-26.7 36.95-13.16 8.5-29.6 11.7-45.03 8.9-15.6-2.8-29.94-11.8-39.22-24.7-8.6-11.8-12.9-26.7-11.8-41.3 1.1-16.4 9-32.1 21.4-42.7C406.6 6.2 420 .9 433.7 0zm1479.7 121.46c27.22-.28 54.45-.02 81.67-.13 5-.22 10.25 1.22 13.8 4.9 5.05 4.94 5.47 13.45 1.52 19.18-3.1 4.8-8.87 7.1-14.37 6.9-26 .1-52 0-78 .1-15.3.1-29.4 11.5-33.3 26.2-2.6 10.3 1.1 21.7 9.1 28.7 10.3 9.3 23.9 13.8 36.8 18.1 21.2 6.9 43.3 12.2 62.7 23.5 12.8 7.4 24 18.7 28.8 33 6.2 18.8 4.3 40.4-6.3 57.3-11.5 18.4-32 29.6-53.1 32.9-11.9 2-23.9 1.1-35.9 1.3h-58.1c-5 .1-10.2-1.9-13.2-5.9-4.8-6-4.2-15.7 1.6-20.9 3.1-2.9 7.4-4.2 11.6-4.1h61.9c8.6-.1 17.5.5 26-1.3 9.4-1.9 18.7-6.2 25.2-13.5 10-11.1 11.3-29.1 3.1-41.7-6-9-15.9-14.3-25.7-18.3-17.8-7-36.7-10.9-54.7-17.3-14.9-5.3-30-12.5-40.3-24.9-10-11.8-13.7-27.9-12.8-43.1 1-18.8 11-36.7 26.1-47.8 10.2-7.5 22.6-12 35.3-12.7zm835.8 31.64c4.2-6.45 13.06-9.43 20.3-6.56 6.3 2.35 10.96 8.68 11 15.47.07 10.5 0 20.9.04 31.3h32.6c9.8-.8 18.7 9.1 16 18.8-1.5 6.7-8 11.9-14.8 11.9-11.2.1-22.4 0-33.6.1v104.1c-.2 7.1 5.8 13.4 12.7 14.4 6.6.7 13.3-.4 19.9.6 8.1 1.7 13.4 10.7 11.4 18.6-1.4 7-8.3 11.9-15.3 11.6-11.4-.3-23.4 1.4-34.2-3-16.6-6.2-28.4-23.2-28.4-41V224.2c-5.5-.1-10.9.2-16.4-.1-7.3-.7-13.1-7.5-13.1-14.7-.3-7.8 6.2-15.2 14.1-15.6 5.1-.2 10.3 0 15.4-.1v-29.3c-.2-3.8.6-7.7 2.9-10.9zm-2351.1 47.97c10.94-8.83 24.92-13.77 38.98-13.73 14.03-.1 28.02 4.78 38.98 13.54 13.75 10.83 22.56 27.68 23.47 45.17.4 11.84-.27 23.73-1.77 35.48-1 2.83-1.8 5.73-2.34 8.7-9.7 46.1-38.1 87.78-76.9 114.37-31.6 21.87-70.1 33.52-108.6 32.93-34.4-.32-68.6-10.45-97.6-28.9-30.2-19.06-54.7-46.88-69.8-79.2-9.1-19.68-15.4-40.94-16.6-62.64 4.3 31.5 21.2 61.2 46.3 80.9 22.1 17.6 50.4 27.3 78.7 26.9 28.8-.2 57.3-10.8 79.2-29.4 23.3-19.6 39.1-48 43.2-78.2 1-6.7 1.1-13.4 1.3-20.1.6-17.8 9.4-35 23.2-46zM2059.64 207c-.04-8.48 6.98-16.24 15.38-17.2 7.38-.96 14.77 3.75 17.7 10.48 2.2 4.76 1.27 10.16 1.45 15.24 12.23-12.7 28.18-22.3 45.75-25.06 27.68-4.24 57.23 8.88 72.26 32.6 10.1-12.17 22.77-22.55 37.66-28.22 15.58-6.1 33-6.48 49.2-2.82 15.95 3.6 30.9 12 41.76 24.26 11.56 12.87 18.26 29.63 20.25 46.7 1.03 7.98.7 16.03.76 24.05 0 24.02.1 48.04 0 72.06.3 8.1-5.7 16.1-13.9 17.4-10.2 1.8-20.5-7.2-20.3-17.6v-86c0-14.1-4.4-28.8-14.4-39.1-13.6-14.4-36.5-18.3-54.4-10.2-17 7.3-30.3 24.3-30.6 43.2v92c.3 8.4-6.4 16.5-14.9 17.6-9.6 1.3-19.1-7-19.2-16.7-.1-23.7 0-47.4 0-71 0-12.3.9-25-3.1-36.8-4.1-13.8-14.6-25.8-28.5-30.2-17-5.8-36.1-.7-49.7 10.3-8 6.3-14.6 14.9-17.1 24.9-1.3 4.8-1 9.8-1 14.8v86.9c.3 9.2-7.9 17.8-17.2 17.7-9.3.1-17.6-8.5-17.3-17.8v-152zm363.5-9.9c15-5.36 31-7.26 46.86-7.42 17.6-.13 35.8 3.75 50.37 14.05 13.43 9.3 22.7 23.97 26.34 39.82 3.2 12.23 2.3 24.93 2.4 37.42v78c.3 8.84-7.1 17.03-15.9 17.7-7.2.68-14.3-3.98-17.2-10.52-2.1-4.55-1.3-9.7-1.4-14.54-10.3 11-23.7 19-38.2 22.8-19.4 5.1-41 2.2-58.1-8.5-11.5-7.1-20.7-18-25.2-30.9-5.6-15.7-3.9-34.3 5.9-48 9.1-12.9 23.9-20.6 39-23.9 13.9-3.2 28.1-2.2 42.2-2.4h34.5c.3-9-1.6-18.5-7.2-25.8-7-9.5-18.7-14.6-30.3-15.8-14.4-1.4-29.2.8-42.3 6.9-5.6 2.6-12.1 5.5-18.3 2.8-7.7-2.6-11.4-12.1-8.3-19.4 2.5-6.4 9.1-9.7 15.2-12m24.8 94.2c-7.6 1.6-15.3 5.1-20.3 11.3-5.4 6.7-6.6 16.3-3.4 24.2 4.9 12.4 18.1 19.7 30.9 20.6 17.2 1.2 34-6.5 46.3-18.1 6-5.8 11.7-12.9 13-21.4.4-5.9.1-11.9.2-17.9h-45c-7.3.1-14.8-.3-22 1.3zm142.2-89.4c2.2-6.8 8.7-12 16-12.3 7.1-.2 13.8 4.5 16.4 10.9 2.1 4.7 1.2 10 1.4 14.9 8.6-11 21.4-18.6 35.1-21.2 7.6-1.5 15.4-.8 23-.9 5-.2 10.4 1.2 14 4.8 4.9 4.8 5.4 13 1.8 18.6-2.5 4-7 6.5-11.6 7.1-10.6.8-21.7-1.3-32 2.3-14.6 4.8-25.7 18-29 32.9-1.6 6.3-1.1 12.7-1.2 19.1 0 27.3.1 54.7 0 82.1-.2 9.9-10.1 18.3-19.9 16.5-8.2-1.3-14.8-9.1-14.6-17.4v-147c0-3.4-.3-6.8.8-10.1zm261.8-8c5.5-4.4 13.6-5.1 19.8-1.6 5.2 2.8 8.7 8.3 9.4 14.1v3.5c-.9 7.8-7.1 14.7-14.9 15.9-8.4 1.7-17.4-3.7-20.1-11.9-2.6-7 0-15.5 5.9-20m5.5.6c-7.3 2.8-11.1 12-7.9 19.2 2.8 7.4 12.1 11.3 19.3 8 7.3-2.9 11.1-12.1 7.9-19.2-2.82-7.3-12-11-19.2-7.9z"/><path d="M2856.97 200.92c.1-2.06 2.6-1.64 4.04-1.72 3.2-.07 7.2-.2 8.9 3.04 1.9 2.95.1 6.4-2.5 8.16.9 2.08 4.6 5.04 1.8 6.9-4.4.17-3.3-8.17-8.4-6.72-.4 2.26 1.1 5.72-1.6 6.9-1.5-.2-2.2-1.03-2.1-2.47 0-4.6-.1-9.4.1-14m3.7 1.5v5.3c1.5 0 3 0 4.5-.1 1.9-.2 2.6-2.7 1.5-4.1-1.6-1.5-4-.7-5.9-1z"/></g></svg>