<svg xmlns="http://www.w3.org/2000/svg" width="166px" height="45px" viewBox="0 0 166 45"><g fill="#fff"><path d="M0 0h1.65C1.95 1.4 1.4 1.95 0 1.7V0zm45.12 0H166v26.8c-1.27 1-2.52 2.05-3.88 2.94-1.38-1-2.6-2.2-3.88-3.3 1.85 2.8 3.34 5.85 3.83 9.2.63-3.15 2.1-6 3.93-8.63v18H0v-1.8c3.22 2.3 7.3 1.7 11 1.7 10.33-.1 20.67.1 31 0 2.34.3 4.8-1.3 4.5-3.8.23-10.3-.1-20.6.1-31 .06-3.3.17-6.9-1.48-10m34.66 6.6c-.03 3.8-.34 7.6.12 11.3 1.16 6.5 11.9 6.5 13.35.3.42-3.8.17-7.7.14-11.5l-3.7.9c-.1 3.6.4 7.3-.3 10.8-1.7 2.2-5.2 1.7-5.9-1 .5-3.4.4-7-.1-10.4-1.3 0-2.5 0-3.7-.1M49.5 7c0 .83-.06 2.53-.08 3.4l4.9-.04V22.6c1.1 0 2.24 0 3.36-.02 0-4.07 0-8.14-.03-12.2l4.7-.08c.05-1 .1-1.98.2-2.98-4.36-.34-8.7-.6-13.07-.4m14.8.14v15.5l3.37.03c0-1.8 0-3.6.02-5.4 3.2-.2 4.4 3.1 6.1 5.3l4.2-.1-3.7-5.2c2.84-1.8 4.4-5.8 1.94-8.5C73 5.9 68.3 6.9 64.4 7m34.8.1c-2 .6-2.8 2.7-3.6 4.4.4.98.8 1.95 1.16 2.93 2.7 1.3 5.6 2.1 8.3 3.5-2.1 2.9-5.47 1.3-8 0l-2 2.3c3.06 2 7.26 3.5 10.66 1.43 2.14-1.17 2.3-3.98 1.6-6.03-2.2-2.7-6.32-2.37-8.8-4.83 2.44-1.46 4.96-.83 7.3.4.5-1.02.97-2.06 1.46-3.1-2.6-.7-5.4-2.2-8.1-1.03m9.06 3.16l4.66-.03c-.05 4.1-.13 8.15.2 12.23h3.43c0-4.1 0-8.2-.03-12.27h4.78l.14-3c-4.34-.54-8.68-.52-13-.5l-.2 3.5m13.16 10.1c2.3 3.15 8.2 3.36 10.1-.3-2.7-1.83-6.5 1.3-8.55-2.25 3.1-.1 6.2-.1 9.3-.2-.16-3.4-2.1-7.7-6.2-7.3-4.97-.1-7.53 6.5-4.64 10.1M52.9 33c1.44 2.73 4.96 1.6 7.22.76-2.2-.46-5.4.8-6.6-1.7-.6-1.9.9-3.3 1.8-4.73 1.6.46 3.2.93 4.8 1.34-1.3-.84-2.47-2.44-4.2-2.1-2.85.38-4.8 3.93-3.18 6.45m8.32-6.3c0 2.65.03 5.3.03 7.92 2 0 4.1.04 6.2.08-2-.82-4.6-.8-5.7-2.92 1.8-.32 3.7-.6 5.5-.9-2.1-.46-5.2-.02-5.3-3.03 1.9-.16 3.8-.35 5.7-.57-2.2-.58-4.4-.6-6.6-.56m7.9-.2c-.1 3.02-.1 6.04.2 9.04 1-2.57.9-5.33 1.1-8.04 2.2-.46 3.4.97 4.4 2.7l-4.1.73c1.5 1.45 3.1 2.9 4.8 4.32-1.7-2.2-.9-4.5-.2-6.8-1.2-2.3-4.2-1.7-6.3-2m7.8 0l.1.4c2.7 1.9 1.3 5.7 2.3 8.5.3-2.3.3-4.7.3-7l3.3-1.8c-2-.2-3.9-.2-5.9-.3m7.2 9c.8-3.1.7-6.4.3-9.5-1 3-.9 6.3-.3 9.5m3.1-9l.03 8c.3 0 .8 0 1.1.1v-3c1.7-.3 3.3-.5 5-.9l-5.4-.6c.2-3.1 3.6-2.6 5.77-3.3-2.1-.2-4.24-.3-6.4-.3m7.07.4v7.6c.3 0 .9.1 1.2.1V27l-1.2-.05m3.12-.1v7.7c2.23-.1 4.52-.17 6.8-.34-2.3-.6-5.3-.2-6.6-2.7l4.9-.3.02-.7c-1.7-.2-3.4-.2-4.8-1.3.9-2.4 4.2-1.2 6.1-2.1-2.2-.4-4.5-.4-6.7-.1m7.8 7.7h5.6c.8-1.5 2.4-3.2 1.5-5.1-1.2-2.6-4.28-3.1-6.8-2.8-.58 2.7-.4 5.4-.4 8m12.3-7.9v7.9h.6c.85-2.6 4.06-2.6 5.63-4.52.4-3.63-3.87-2.8-6.2-3.23m6 1.2c2.13.6 6.44-1.4 6.7 1.9-1.6 1.24-3.86.3-5.7.4l.43 4.7 1.2-3.24c2.03-.55 3.4 2.4 5.1 3.45L129.6 32c.6-1.6 1.04-3.2 1.3-4.9-2.53-.07-5.14-.1-7.6.8m9.8-1c.08 2.8.15 5.7.46 8.52.53-2.13.66-4.4 1.66-6.37l1-.2c.8 1.93 1.5 3.9 2.5 5.77l.9-.16c1.6-2.53 2.6-5.4 3.4-8.3-1.7 2.1-2.8 4.6-3.93 7l-2.4-6.04-3.6-.3m8.8 8.3l3.2-3.2c1.9.6 3.6 1.66 5.3 2.9-1.4-3-2.7-6-4.3-8.9-1.6 3-3 6.07-4.2 9.2m10.5-7.8c-2.7 1.4-2.2 5.4.1 6.9 2 .68 4.2.18 6.1-.74-3 .2-6 .14-7.8-2.65 1.5-2.6 4.4-3.4 7.2-3.92-1.9.1-3.9-.1-5.7.4z"/><path d="M12.24 26.72C9 19.62 15.2 10.62 23 11.14c6.48-.45 11.74 5.43 11.9 11.7-4.5.6-3.83-4.95-6.8-6.8-3.82-3.12-10.16-1.76-12.35 2.66-2.97 4.72.9 11.47 6.3 11.88 2.76.46 5.17-1.22 7.56-2.32.5.86.9 1.74 1.3 2.64-5.4 5.47-16 3.1-18.6-4.18zM67.7 10.25c1.94 0 3.87.04 5.8.14.1 1.3.6 2.7-.47 3.8-1.75.3-3.54.3-5.32.3v-4.3zm55.34 5.05c1.04-1.1 2.15-2.38 3.82-2.2.88.74 1.63 1.6 2.4 2.43-2.07.1-4.17.2-6.22-.23z"/><path d="M17.5 22.36c1.3-2.05 2.65-4.87 5.5-4.8 2.9-.15 4.32 2.7 5.63 4.78-3.7.22-7.42.22-11.12.02zm89.07 4.9c1.37.28 2.68.7 3.93 1.3 1.4 1.18.73 3.17.95 4.7-1.68.2-3.36.36-5.04.5.1-2.15.1-4.32.2-6.5zm11.73.22c1.63.46 3.27.94 4.9 1.44-1.27.96-2.4 3.05-4.33 2.43l-.58-3.87zm27.96 1.82c1.67.02 1.45 2.76-.18 2.62-1.7 0-1.43-2.76.18-2.63z"/></g><path fill="#8cc63c" d="M1.65 0h43.47c1.65 3.07 1.54 6.6 1.5 9.98-.22 10.34.1 20.68-.13 31 .3 2.55-2.2 4.14-4.5 3.86-10.4.16-20.7-.1-31 .07-3.7 0-7.8.6-11-1.7V1.7c1.4.25 1.9-.3 1.6-1.7m11 7.7c-5.1 3.2-7.5 9.05-8.2 14.78l3.4-.03C8.2 14.95 14.4 8.2 22 7.7c8.24-.7 15.96 6.4 16.06 14.65l3.56.22c-.65-4.35-1.83-8.88-5-12.1-5.87-6.7-16.7-7.97-23.95-2.78m-.43 19c2.6 7.3 13.2 9.6 18.63 4.2-.4-.9-.8-1.8-1.26-2.7-2.3 1.1-4.8 2.8-7.5 2.3-5.4-.4-9.2-7.2-6.3-11.9 2.2-4.5 8.6-5.8 12.4-2.7 3 1.8 2.3 7.4 6.8 6.8-.1-6.3-5.4-12.2-11.9-11.7-7.8-.6-14 8.4-10.7 15.6m5.3-4.4c3.7.2 7.4.2 11.2 0-1.3-2.1-2.7-5-5.6-4.8-2.8-.1-4.2 2.7-5.5 4.8zM79.8 6.6c1.23.07 2.46.1 3.7.1.5 3.48.6 7 .03 10.5l-.5-.2c-.04-3 .1-5.9-.17-8.9L79.8 6.66zM52.97 33c-1.64-2.5.33-6.06 3.18-6.44 1.73-.35 2.9 1.25 4.2 2.1-1.63-.4-3.24-.9-4.84-1.35-.9 1.5-2.4 2.9-1.8 4.8 1.2 2.5 4.4 1.3 6.6 1.7-2.3.9-5.8 2-7.2-.7zm8.34-6.3c2.2-.02 4.5 0 6.6.58-1.9.2-3.8.4-5.7.55.1 3 3.2 2.57 5.3 3.04l-5.5.9c1.2 2.13 3.8 2.1 5.7 2.92-2-.1-4.1-.1-6.2-.1v-7.9zm8-.2c2.1.36 5.1-.3 6.3 1.97-.6 2.3-1.4 4.6.2 6.8-1.6-1.5-3.2-2.9-4.8-4.4l4.2-.78c-.9-1.7-2.2-3.2-4.4-2.7-.1 2.7-.1 5.5-1.1 8-.2-3-.2-6.1-.2-9.1zm7.8.08l5.9.3-3.2 1.77c0 2.3 0 4.6-.3 6.92-1-2.8.4-6.6-2.2-8.6l-.1-.46zm7.2 9.03c-.6-3.1-.7-6.4.3-9.5.5 3.2.5 6.4-.2 9.5zm3.1-8.9l6.4.3c-2.1.8-5.5.2-5.7 3.3l5.4.6c-1.6.4-3.3.6-4.9.9l.1 3-1-.1-.1-8zm7.1.5h1.2v7.6h-1.2c.1-2.5.1-5 .1-7.5zm3.2-.2c2.2-.2 4.5-.3 6.7.2-1.9.9-5.2-.3-6.1 2.2 1.4 1.1 3.2 1.1 4.8 1.4v.8l-4.9.3c1.3 2.5 4.3 2.1 6.6 2.7-2.2.2-4.5.3-6.8.4l-.2-7.9zm7.8 7.7c.1-2.6-.1-5.3.4-8 2.6-.3 5.6.2 6.8 2.8.9 1.9-.7 3.6-1.5 5.2h-5.6m1.2-7.3c-.1 2.2-.1 4.4-.1 6.5 1.7-.1 3.4-.3 5.1-.5-.2-1.5.4-3.5-.9-4.7-1.2-.6-2.5-1-3.9-1.3zm10.8-.3c2.4.5 6.6-.4 6.2 3.3-1.5 2-4.7 1.9-5.6 4.6h-.6v-8m.9.6c.1 1 .4 2.9.6 3.9 1.9.66 3.1-1.43 4.4-2.4-1.6-.5-3.3-1-4.9-1.43zm5.1.67c2.5-.9 5.1-.86 7.6-.8-.3 1.7-.7 3.3-1.3 4.9l1.5 3.13c-1.7-1-3-4-5.1-3.4l-1.2 3.2c-.1-1.58-.3-3.17-.4-4.75 1.8 0 4.1.9 5.7-.4-.3-3.2-4.6-1.2-6.7-1.9zm9.6-1.03l3.6.3 2.4 6.1c1.1-2.4 2.2-4.9 3.9-7-.7 2.9-1.7 5.7-3.4 8.3-.3 0-.7.1-.9.1-1-1.9-1.7-3.9-2.5-5.8l-1 .1c-1 1.9-1.2 4.2-1.7 6.3-.3-2.8-.4-5.7-.4-8.6zm8.9 8.3c1.3-3.1 2.7-6.2 4.2-9.2 1.6 2.9 3 5.9 4.3 8.9-1.6-1.2-3.3-2.3-5.3-2.9l-3.2 3.2m4.4-6.1c-1.6-.2-1.9 2.6-.2 2.6 1.6.1 1.8-2.6.2-2.7zm6.1-1.8c1.9-.5 3.8-.4 5.7-.5-2.8.5-5.6 1.3-7.2 3.9 1.8 2.8 4.8 2.8 7.8 2.6-1.9.9-4 1.4-6.1.7-2.3-1.5-2.7-5.5 0-6.9zm5.8-1.2c1.3 1.1 2.5 2.3 3.9 3.3 1.4-.9 2.6-1.9 3.9-2.9v.2c-1.8 2.7-3.3 5.5-3.9 8.7-.5-3.4-2-6.4-3.8-9.2z"/><path fill="#1e181e" d="M12.67 7.7c7.24-5.2 18.08-3.94 23.94 2.76 3.2 3.23 4.4 7.76 5.1 12.1-.9-.04-2.6-.15-3.5-.2C38 14.1 30.3 7 22 7.7c-7.56.5-13.76 7.24-14.05 14.75l-3.5.03c.76-5.73 3.17-11.58 8.22-14.8zm36.93-.8c4.36-.22 8.72.05 13.06.37l-.2 2.98-4.7.08c.03 4.06.03 8.13.04 12.2-1.12 0-2.25 0-3.37.02 0-4.1 0-8.2.02-12.28-1.64 0-3.28 0-4.92.02l.08-3.4zm14.8.13c3.9-.1 8.63-1.07 11.82 1.72 2.44 2.8.9 6.77-1.96 8.53 1.23 1.74 2.46 3.5 3.7 5.23l-4.07.1c-1.7-2.1-2.9-5.4-6.2-5.3l-.1 5.4h-3.4V7.2m3.3 3.2v4.4c1.8-.07 3.5-.06 5.3-.37 1.1-1.07.6-2.54.5-3.85-2-.1-3.9-.13-5.8-.14zm22.2-2.9l3.6-.87c0 3.85.2 7.7-.2 11.53-1.5 6.28-12.2 6.24-13.4-.22-.5-3.73-.2-7.52-.2-11.27l3.1 1.44c.2 3 .1 6 .1 9l.5.2c.7 2.7 4.2 3.3 5.9 1.1.7-3.5.2-7.2.3-10.8zm9.4-.33c2.6-1.16 5.5.34 8.1 1.03l-1.5 3.1c-2.4-1.23-4.9-1.86-7.3-.4 2.5 2.5 6.6 2.15 8.8 4.87.7 2.05.5 4.86-1.6 6.02-3.4 2-7.6.5-10.7-1.5l2-2.4c2.5 1.2 5.8 2.8 8-.1-2.8-1.4-5.7-2.2-8.4-3.5l-1.2-2.9C96.2 9.6 97 7.5 99 7zm9 3.16l.2-3.5c4.3 0 8.6-.03 13 .5l-.2 2.98h-4.8v12.3H113c-.32-4.1-.24-8.1-.2-12.2-1.55 0-3.1 0-4.64.1zm13.1 10.13c-2.9-3.64-.3-10.23 4.6-10.06 4.1-.4 6 3.83 6.2 7.3-3.1.03-6.2 0-9.3.2 2 3.52 5.8.4 8.5 2.24-1.9 3.64-7.8 3.43-10.1.3m1.6-5.12c2 .43 4.1.34 6.2.24-.8-.83-1.6-1.7-2.4-2.42-1.7-.17-2.8 1.1-3.9 2.2z"/></svg>