<svg xmlns="http://www.w3.org/2000/svg" width="107px" height="53px" viewBox="0 0 107 53"><g fill="#fff"><path d="M0 0h47.63l1.76.55c-1.3 1-2.5 2.05-3.7 3.12h-2.1l-2.1 2.55-1.2 3.5-2.5-2.74-.5 2.37 2.2.28-.4 1.06c-1.6.6-3.2 1.1-4.6 2.1l.6-1.4c-7.7-4.6-18-4.7-25.4.3-5 3.2-8 8.6-9.9 14.1V0zm51.15 0H107v27.06c-2.36-8.68-11.1-14.5-19.9-14.5-13.05-.04-26.1-.02-39.14.03-1.8-.1-3.66-.1-5.37-.7l-.7-1.5c-.6 1.1-1.2 2.2-1.9 3.4-.3-.7-.7-1.4-1-2l3.3-2.7 1.1 2.5 4.1-3.5c-1.4-.4-2.7-.7-4-1.1 1.7-1.2 3-2.7 4.7-3.9l.4 2.5 2.4-.8-3-2 3-2.9m47.2 11.6c-1.6 3.2 3.2 2.8 5.1 3 0-.6.1-1.8.1-2.5-1.8-.2-3.5-.5-5.3-.6z"/><path d="M4.18 30.97c-.4-7.68 4.8-15.1 12-17.62 5.3-2.05 11.12-1.02 16.2 1.16l.93-.2c-1.3 2.2-2.9 4.3-4.5 6.3-3 3.4-4.8 7.6-6.8 11.6-3.1-3.6-6.3-7.8-11.3-8.8l-.2 2.5c2.7 3.7 5.8 7 7.5 11.3 1.2 2.7 2.6 7.1 6.4 5.4 3.9-7.1 6.6-15.2 12.6-21L34.6 20l.33-1.03 1.4-.53.4 2.7 1.6-.9c3.7 5.14 4.5 12.13 1.8 17.88C36.6 46.28 26.6 51 18 48.48c-7.8-1.95-14-9.38-13.8-17.5z"/><path d="M43.5 14.15c11.5 0 23 .24 34.48-.02 5.24-.4 10.63-.5 15.7 1.14 5.55 1.82 10.38 6.34 11.8 12.1 1.5 6.86-1.85 14.6-8.1 17.9-4.07 2.25-8.83 2.5-13.37 2.46-15.4-.08-30.8.04-46.2-.08 5-4.45 8.3-10.88 7.9-17.63.3-5.03-2.3-9.5-4.6-13.72.8-.78 1.7-1.47 2.5-2.15m37 15.08c.2-2.8.1-5.62-.3-8.4-1 2.58-2.6 6.65.4 8.4m-30.5-7.4c1.1 2.36 1.4 5.72 3.8 7.07 1.4-2.22 2.3-4.67 3.1-7.14-1.9.65-2.7 2.55-3.6 4.16-.5-1.78-1.1-3.8-3.2-4.1m18.6.25l-.1 6.5 1.86.04-.03-6.4h-1.7m3.57 1.2c-.6 2.3 2.34 2.7 3.53 4l-4.2.1c1.55 1.9 4.8 2.4 6-.2-.9-1.6-2.6-2.4-4-3.43l3.8.03c-1.3-2.17-3.9-2.15-5.2-.3M57 27.07c.8 1.9 3 1.92 4.72 2.17l-.33-2.1 2-.3c.3.97.8 1.77 1.6 2.4.8-1.9 1.6-3.86 2.3-5.82-2 0-3.9.4-5.3 1.8-.9-3.9-6.1-1.14-5 1.88m25.2-1.7c.2 1 .3 2.1.5 3.1l3.5.1c-1.3.3-2.6.5-3.9.8 1.4 1.3 3.5 1.5 4.9.1.3-1.9.3-3.8.3-5.7-1.9.24-4.8-.7-5.5 1.78m7.3-1.7l-.1 5h1.35c.2-1.43.44-2.9 1.3-4.1.5 1.64.46 3.73 2.14 4.7 0-1.84-.03-3.67-.13-5.5l-4.67-.1m-37.9 8.8l-.4 2.3c1.1.88 2.2 1.75 3.3 2.66l-3.84-.05c1.7 2.4 5.7 1.9 5.96-1.25-1.32-.73-2.7-1.44-4.1-2.15l4.2-.67c-1.5-1.1-3.3-1-5.05-.9m42.6-.6c-1.76 1.4-5.9 2.15-5.2 5.07.4 2.76 3.6 1.62 5.5 1.83 0-2.3-.2-4.6-.3-6.88M57.8 37c.07 2.14 2.9 2.04 4.36 2.6.05-1.86 1.8-4.36-.26-5.65-1.85-1.56-4.9.8-4.1 3.05m8.4-3.5c-1.57 1.32-2.77 4.28-.22 5.27 1.26 1.37 2.54-.3 3.5-1.03l-3.26-.5.06-1.8h2.6c-.1-.43-.25-1.3-.33-1.72-.6-.04-1.78-.14-2.37-.2m17.1.92c-2.12 1.92.15 5.62 2.78 4.87 1.54-.8 1.47-2.9 2.24-4.2-1.48-.9-3.64-2.5-5.04-.6M71.2 38.8c1.7-.04 3.4-.12 5.1-.24-.4-1.76 0-4.06-1.9-5.05l-.2 3.5h-1.46l-.4-3.8c-1.77 1.4-1.1 3.8-1.14 5.7m6.8-5c.05 1.9-.05 3.9.8 5.6.9-1.9 1.75-3.8 2.6-5.7l-3.4.1z"/><path d="M100.72 44.78c3.08-2.4 4.84-6 6.28-9.5v16.88c-19.98-.07-39.96-.06-59.94-.04-5.03.14-10.1.2-15.04-.97 1.48-.74 2.96-1.47 4.42-2.26 6.2-.3 12.4.1 18.6.1 11-.5 22.02-.1 33.03-.2 4.5 0 9.1-1.3 12.65-4.1z"/></g><path fill="#231f20" d="M47.63 0h3.52c-1.03.98-2.05 1.97-3.05 2.97l3.1 2.1-2.43.8-.43-2.5c-1.68 1.17-3.02 2.74-4.72 3.86l4 1.08-4.1 3.5-1.08-2.5-3.3 2.7c.34.7.66 1.3.97 2 .7-1.1 1.3-2.2 1.9-3.4l.7 1.5c.2.6.7 1.7.9 2.3-.8.7-1.7 1.4-2.5 2.2l-2.7 3.9-1.6.9-.3-2.7-1.4.57-.4 1.04 2.4 1.5c-6 5.7-8.6 13.8-12.6 20.9-3.8 1.7-5.2-2.7-6.4-5.4-1.6-4.24-4.8-7.6-7.5-11.25.1-.6.2-1.8.3-2.4 5 1 8.2 5.26 11.3 8.86 2-4 3.8-8.2 6.8-11.6 1.7-2 3.2-4.1 4.6-6.3l.5-.44v.5l2.1 2.1c.17-.6.48-1.84.6-2.5-.5-.23-1.55-.8-2.1-1.03l.18-.2c1.3-1.1 2.96-1.6 4.5-2.2l.4-1.1-2.24-.3L38 7l2.44 2.7c.44-1.17.83-2.3 1.2-3.5l2.1-2.56h2.14C47 2.5 48.2 1.5 49.44.4L47.6 0m-4.48 8.16c.37 3.4 2.9-1.72 0 0z"/><path fill="#d3d4d4" d="M43.15 8.16c2.9-1.72.37 3.4 0 0z"/><path fill="#a0274b" d="M9.92 11.86c7.45-5.06 17.78-4.93 25.43-.35l-.67 1.4-.15.2-.74.8-.5.5-1 .3c-5.1-2.1-10.9-3.2-16.2-1.1-7.2 2.5-12.4 9.9-12 17.6-.2 8.1 6 15.6 13.8 17.5 8.6 2.5 18.5-2.2 22-10.4 2.7-5.7 1.8-12.7-1.8-17.9.9-1.2 1.8-2.5 2.8-3.8 2.3 4.2 4.9 8.7 4.6 13.7.4 6.8-3 13.2-7.9 17.7l-1.3 1.2c-1.5.8-3 1.5-4.4 2.3-2.1.78-4.2 1.4-6.3 1.87h-7C9.5 51 2.1 43.77 0 34.6v-8.63c1.96-5.46 4.88-10.9 9.92-14.1zm40.1 9.96c2.15.3 2.7 2.32 3.23 4.1.93-1.6 1.74-3.5 3.66-4.16-.7 2.47-1.7 4.92-3 7.14-2.4-1.35-2.7-4.7-3.8-7.08zm39.6 1.78c1.55.03 3.1.05 4.65.1.1 1.82.13 3.65.12 5.48-1.7-.96-1.7-3.05-2.2-4.68-.9 1.2-1.1 2.66-1.3 4.1l-1.4-.02V23.6zm-37.98 8.83c1.75-.07 3.57-.2 5.06.9l-4.14.62 4.1 2.14c-.24 3.1-4.25 3.6-5.96 1.2h3.86l-3.33-2.7.4-2.3zm26.46 1.35l3.4-.1c-.87 1.9-1.7 3.8-2.6 5.7-.87-1.75-.77-3.7-.8-5.6z"/><g fill="#a13258"><path d="M42.6 11.9c1.7.63 3.55.66 5.36.7 13.05-.06 26.1-.08 39.14-.04 8.8 0 17.54 5.82 19.9 14.5v8.2c-1.44 3.53-3.2 7.13-6.28 9.52-3.55 2.85-8.16 4.07-12.65 4.08-11 .1-22.03-.26-33.04.2-6.2-.05-12.4-.47-18.6-.17l1.38-1.3c15.4.1 30.8 0 46.2.1 4.6 0 9.3-.2 13.4-2.5 6.3-3.3 9.6-11.1 8.1-17.9-1.4-5.8-6.2-10.3-11.8-12.1-5-1.6-10.4-1.5-15.7-1.1-11.5.2-23 0-34.5 0-.2-.6-.7-1.7-.9-2.3z"/><path d="M80.52 29.23c-3.02-1.75-1.4-5.82-.37-8.4.44 2.78.52 5.6.37 8.4zm-11.87-7.16l1.7.07c0 2.16.04 4.3.06 6.47h-1.8c.1-2.1.1-4.3.1-6.5zm3.58 1.18c1.37-1.86 3.96-1.88 5.2.28l-3.8-.03c1.4 1.06 3.15 1.83 4 3.47-1.17 2.6-4.45 2.12-6.04.26l4.1-.02c-1.2-1.2-4.1-1.7-3.5-3.9zm10.07 2c.74-2.44 3.6-1.53 5.5-1.75-.08 1.93 0 3.87-.37 5.77-1.45 1.37-3.5 1.2-4.93-.1l3.82-.78-3.52-.1c-.16-1-.32-2.1-.5-3.1m1.97-.2c-.53 1.7 0 2.2 1.55 1.7.54-1.7.02-2.3-1.55-1.8zm9.97 6.8c.1 2.3.3 4.5.32 6.8-1.9-.2-5.1.9-5.53-1.9-.7-2.9 3.45-3.7 5.2-5.1m-3.26 3.5c-.57 1.63-.04 2.2 1.6 1.72.57-1.65.03-2.2-1.6-1.75zm-24.7-2l2.37.2.32 1.7h-2.6l-.06 2 3.26.5c-.96.73-2.24 2.4-3.5 1.06-2.55-.94-1.35-3.9.2-5.22zm5.03 5.3c.06-1.94-.62-4.3 1.14-5.7l.4 3.86 1.44.1.22-3.5c1.93 1 1.54 3.3 1.92 5.05-1.7.17-3.4.2-5.1.3z"/></g><path fill="#c38ba2" d="M98.3 11.58c1.76.06 3.5.36 5.26.6l-.1 2.45c-1.94-.2-6.75.2-5.17-3.05z"/><path fill="#fdfdff" d="M33.8 13.8c.18-.2.54-.56.73-.75l2.1 1.06-.6 2.5-2.26-2.3.02-.5zm50.47 11.28c1.57-.5 2.1.08 1.55 1.76-1.56.5-2.08-.08-1.55-1.76zm6.7 10.36c1.63-.47 2.17.1 1.6 1.72-1.64.48-2.17-.1-1.6-1.72zM0 34.58C2.13 43.74 9.56 50.98 18.73 53H0V34.58z"/><path fill="#ba708b" d="M57.02 27.03c-1.04-3.02 4.1-5.74 5-1.85 1.45-1.4 3.34-1.83 5.3-1.8-.7 1.96-1.5 3.9-2.3 5.83-.77-.6-1.3-1.4-1.6-2.4l-2 .3.33 2.1c-1.75-.2-3.93-.2-4.73-2.1z"/><path fill="#af6d87" d="M57.87 36.94c-.8-2.22 2.26-4.6 4.1-3.05 2.08 1.2.32 3.7.27 5.6-1.48-.6-4.3-.5-4.37-2.6z"/><path fill="#bb6a85" d="M83.38 34.35c1.4-1.9 3.56-.25 5 .63-.76 1.37-.7 3.46-2.23 4.25-2.63.75-4.9-2.95-2.77-4.88z"/><path fill="#e3e1e3" d="M25.7 53c2.14-.47 4.26-1.1 6.32-1.85 4.93 1.17 10 1.1 15.04.97 19.98-.02 39.96-.03 59.94.04V53H25.7z" opacity=".91"/></svg>